<svg height="618" width="2500" xmlns="http://www.w3.org/2000/svg" viewBox="0 0.2 1516 374.5"><linearGradient id="a" gradientUnits="userSpaceOnUse" x2="0" y1=".2" y2="312.1"><stop offset="0" stop-color="#409"/><stop offset=".331" stop-color="#3e0090"/><stop offset=".879" stop-color="#2c0076"/><stop offset=".996" stop-color="#280070"/></linearGradient><g fill="#409"><path d="M1500.2 125c-8.8 0-15.8-7-15.8-15.6s7-15.6 15.8-15.6c8.7 0 15.8 7 15.8 15.6s-7.1 15.6-15.8 15.6zm0-29.9c-3.8 0-7.5 1.5-10.2 4.2s-4.2 6.3-4.2 10.1c-.1 3.8 1.4 7.4 4.1 10.1s6.4 4.2 10.3 4.1c3.8 0 7.5-1.5 10.2-4.1 2.7-2.7 4.2-6.3 4.2-10.1s-1.5-7.5-4.2-10.1c-2.7-2.7-6.4-4.2-10.2-4.2zm-6.2 5.9h7.2c1.8-.1 3.5.5 4.8 1.6.9.8 1.4 2 1.3 3.1 0 2.4-1.8 4.5-4.2 4.8l5.3 6.4h-3l-4.6-6.1h-4.1v6.1h-2.5zm7.2 2.2h-4.7v5.7l4.6-.1c2.3 0 3.8-1 3.8-2.8 0-1.7-1.4-2.8-3.7-2.8z" fill-rule="evenodd"/><path d="M957.2 373h-9.7v-65.2h9.7v11.3c4.4-8 13-13 22.2-12.7 15.8 0 24.9 10.4 24.9 26v40.5h-9.4v-38c0-12.1-6.6-19.7-18-19.7-5.4 0-10.6 2.1-14.3 6s-5.6 9.1-5.2 14.5z"/><path d="M1077.9 362.3c-6.5 7.9-16.4 12.4-26.8 12.2-8.9 0-17.5-3.7-23.6-10.1-6.2-6.5-9.4-15.1-8.8-24 0-18.9 13.2-34 31.2-34 19.2 0 30.3 15.6 30.3 34.6q.1 1.5 0 3h-51.5c.3 12.2 10.4 22 22.8 22h-.1c7.9.1 15.3-3.3 20.5-9.2zm-49.4-25.5h41.8c-1-11.9-7.8-22.2-20.8-22.2-11.2 0-19.8 9.5-21 22.2z" fill-rule="evenodd"/><path d="M1106 354.4c-.4 3 .6 6 2.7 8.2 2.2 2.1 5.3 3.1 8.3 2.7 3.2 0 6.5-.8 9.3-2.3v8.3c-3.5 1.9-7.5 2.9-11.6 2.8-10.5 0-18.4-5.2-18.4-18.4v-39.3h-9v-8.6h9v-19.7h9.7v19.7h20.5v8.6h-20.7zM1181.5 307.5l-17.5 52.6-17.1-52.3h-10.3l22.8 65.7h8.5l17.6-51.5 17.5 51.5h8.4l22.9-65.7h-10.1l-17.1 52.3-17.5-52.6z"/><path d="M1240.5 340.5c.3-18.4 15.6-33.2 34.3-33s33.7 15.3 33.5 33.8-15.4 33.3-34.1 33.2c-9.1 0-17.7-3.6-24.1-10-6.3-6.4-9.8-15-9.6-24zm9.9-.2c-.3 6.5 2.1 12.9 6.6 17.7s10.8 7.6 17.5 7.8c6.6-.1 12.9-2.8 17.4-7.6 4.5-4.7 6.9-11.1 6.5-17.7.3-6.5-2.1-13-6.7-17.8-4.5-4.8-10.8-7.6-17.5-7.7-6.6 0-12.9 2.8-17.4 7.6s-6.8 11.2-6.4 17.7z" fill-rule="evenodd"/><path d="M1332.8 373h-9.7v-65.2h9.7v17c4-10.9 14.5-18.2 26.3-18.2V317h-.7c-14.2 0-25.8 10.4-25.8 29.9zM1370.7 280.9V373h9.7v-17.1l13.1-13.3 23.3 30.4h11.6l-28.2-37.2 27.3-28h-12.1l-35 36.7v-63.6zM1461.2 374.5c-9.8-.2-19.2-3.5-26.9-9.6l4.9-7c6.4 5.2 14.3 8.1 22.6 8.4 7.7 0 13.4-4 13.4-10.4 0-6.6-7.7-9.1-16.2-11.5-10.2-2.9-21.5-6.5-21.5-18.4 0-11.2 9.3-18.7 22.1-18.7 8.4.2 16.4 2.7 23.4 7.2l-4.4 7.3c-5.7-3.8-12.3-6-19.2-6.3-7.7 0-12.6 4-12.6 9.5 0 6.2 8.1 8.6 16.7 11.3 10.1 3 21.1 6.9 21.1 18.6 0 12.4-10.2 19.5-23.2 19.5M442.2 62.6H579v19.2H463.2v64h103.4V165H463.5v65.5h117v19.2H442.2zM654.3 179.4l-52.6-67.9h23.8L667 165l41.3-53.5h23.4l-53.1 67.6 55.1 70.6h-24.1l-43.4-56.4-43.6 56.4h-23.2zM769.2 213.3v-83.1h-19.5V112h19.5V70.4h21.1V112h44.3v18.2h-44.3v80.2c0 16.9 9.4 23 23.5 23 7 .1 14-1.6 20.3-4.8v17.6c-7.8 4-16.4 6.1-25.2 5.9-22.7 0-39.7-10.9-39.7-38.8zM863.3 111.5h21v36.1c10.5-23 30.6-39.6 57.1-38.5v22.2h-1.6c-30.6 0-55.5 21.6-55.5 63.4v55h-21z"/><path d="M1080.2 227c-14.1 17-35.4 26.6-57.6 26-38.3 0-69.9-29.3-69.9-72.2 0-40.1 28.5-72.2 67.2-72.2 41.4 0 65.2 32.6 65.2 73.2q.1 3.7-.3 7.3h-111c3 29.1 24.7 45.9 49.3 45.9 16.9.2 33-6.9 44.1-19.5zm-106.4-54.3h90.2c-2.5-25.2-17.1-46.8-44.7-46.8-24.1 0-42.5 19.7-45.5 46.8z" fill-rule="evenodd"/><path d="M1113.8 111.5h21v23.3c9.2-13.7 21.7-26 45.2-26 19.3-.7 37 10.2 44.9 27.5 10.1-17.3 28.8-27.9 48.9-27.7 32.2 0 52 21.4 52 55.6v85.5h-21V169c0-26.7-13.5-41.6-36.3-41.6-21 0-38.7 15.6-38.7 42.8v79.5h-20.6v-81.2c0-26-13.8-41.2-36-41.2s-39 18.2-39 43.6v78.8h-21z"/><path d="M1479.5 227c-14.1 17-35.4 26.6-57.6 26-38.5 0-69.9-29.2-69.9-72.2 0-40.1 28.4-72.1 67.2-72.1 41.3 0 65.2 32.6 65.2 73.2 0 1.9 0 4-.3 7.2h-111c3 29.1 24.6 45.9 49.3 45.9 16.9.2 33-6.9 44.1-19.5zm-106.3-54.3h90.1c-2.4-25.2-17-46.8-44.7-46.8-24 0-42.4 19.7-45.4 46.8z" fill-rule="evenodd"/></g><path d="M294.8 5.4v52c0 2.9-2.4 5.2-5.3 5.2H68.4c-2.9 0-5.2 2.3-5.2 5.2v106.6c0 8.3-3.4 16.2-9.3 22.1L0 249.7V5.4C0 2.6 2.4.2 5.3.2h284.2c2.9 0 5.3 2.4 5.3 5.2zM126.3 130c0-2.8 2.3-5 5-5h117.1c2.8 0 5 2.2 5 5v52.4c0 2.7-2.2 5-5 5H131.3c-2.7 0-5-2.3-5-5zM53.9 302.9L0 249.7h289.5c2.9 0 5.3 2.3 5.3 5.2v52c0 2.9-2.4 5.2-5.3 5.2H76.3c-8.4 0-16.5-3.3-22.4-9.2z" fill="url(#a)" fill-rule="evenodd"/></svg>